<svg width="172" height="22" viewBox="0 0 172 22" fill="none" xmlns="http://www.w3.org/2000/svg">
<path d="M19.5733 10.6508C19.5917 10.9285 19.6009 11.2062 19.6009 11.484C19.6009 12.8537 19.3551 14.1449 18.8651 15.3566C18.3741 16.5688 17.699 17.6245 16.8381 18.5217C15.9778 19.4203 14.9551 20.1279 13.7705 20.6456C12.586 21.1637 11.3083 21.423 9.93906 21.423C8.56933 21.423 7.2786 21.1637 6.06638 20.6456C4.85417 20.1279 3.799 19.4203 2.90136 18.5217C2.00371 17.6245 1.29558 16.5688 0.777443 15.3566C0.258825 14.1449 0 12.8537 0 11.484C0 10.1147 0.258825 8.82302 0.777443 7.61081C1.29558 6.39909 2.00371 5.34392 2.90136 4.44579C3.799 3.54814 4.85417 2.84001 6.06638 2.32139C7.2786 1.80423 8.56933 1.54492 9.93906 1.54492C11.7339 1.54492 13.3678 1.97533 14.8393 2.83565C16.3113 3.69597 17.491 4.83015 18.379 6.23672L15.1311 8.31846C14.6313 7.31903 13.9232 6.51929 13.0072 5.91682C12.0911 5.31581 11.0679 5.01481 9.93906 5.01481C9.10636 5.01481 8.3294 5.18688 7.60722 5.52858C6.88503 5.87126 6.2559 6.33365 5.71935 6.91674C5.18279 7.49982 4.75724 8.18468 4.44219 8.97085C4.12714 9.75799 3.9701 10.596 3.9701 11.484C3.9701 12.3724 4.12714 13.2099 4.44219 13.9961C4.75724 14.7832 5.18279 15.4676 5.71935 16.0507C6.2559 16.6338 6.88503 17.0972 7.60722 17.4389C8.3294 17.7815 9.10636 17.9521 9.93906 17.9521C10.6055 17.9521 11.2346 17.8416 11.8279 17.6196C12.4192 17.3972 12.9471 17.0831 13.4094 16.676C13.8718 16.2683 14.2746 15.7919 14.6168 15.2456C14.9595 14.6999 15.2144 14.0935 15.3812 13.4276H10.1058L8.3294 9.8176H19.4899C19.5267 10.0953 19.5548 10.3735 19.5733 10.6508Z" fill="#7239EA"/>
<path d="M33.5654 7.87473L33.2324 8.43019L31.8167 10.9564L31.7885 10.9288C31.1778 10.5774 30.5206 10.4009 29.8178 10.4009C29.336 10.4009 28.8828 10.4799 28.4573 10.637C28.0307 10.7945 27.6522 11.016 27.3187 11.3029C26.9862 11.5904 26.7037 11.9277 26.472 12.3164C26.2403 12.7051 26.0876 13.1215 26.0144 13.566V21.2008H22.2382V7.31928H26.0144V9.12378C26.995 7.77343 28.4292 7.09729 30.3175 7.09729C31.4279 7.09729 32.501 7.35708 33.5373 7.87473H33.5654Z" fill="#7239EA"/>
<path d="M40.9682 18.1191C41.4306 18.1191 41.861 18.0178 42.2594 17.8137C42.6569 17.6106 43.0088 17.3281 43.3141 16.9674C43.62 16.6064 43.8599 16.19 44.0363 15.7179C44.2118 15.2458 44.3 14.7325 44.3 14.1771C44.3 13.659 44.2118 13.1636 44.0363 12.6915C43.8599 12.2199 43.62 11.8128 43.3141 11.4696C43.0088 11.1279 42.6569 10.8545 42.2594 10.651C41.861 10.4479 41.4306 10.3456 40.9682 10.3456C40.5058 10.3456 40.0701 10.4479 39.6639 10.651C39.2563 10.8545 38.8996 11.1279 38.5947 11.4696C38.2889 11.8128 38.0485 12.2199 37.872 12.6915C37.6966 13.1636 37.6084 13.659 37.6084 14.1771C37.6084 14.7325 37.6966 15.2458 37.872 15.7179C38.0485 16.19 38.2889 16.6064 38.5947 16.9674C38.8996 17.3281 39.2563 17.6106 39.6639 17.8137C40.0701 18.0178 40.5058 18.1191 40.9682 18.1191ZM40.9682 7.09772C41.9681 7.09772 42.9017 7.28723 43.7722 7.66674C44.6422 8.04625 45.4007 8.55954 46.0483 9.20757C46.6963 9.8556 47.2101 10.6141 47.5896 11.4842C47.9691 12.3542 48.1591 13.2794 48.1591 14.26C48.1591 15.2415 47.9691 16.1667 47.5896 17.0368C47.2101 17.9073 46.6963 18.6653 46.0483 19.3133C45.4007 19.9614 44.6422 20.4747 43.7722 20.8547C42.9017 21.2332 41.9681 21.4227 40.9682 21.4227C39.9683 21.4227 39.0338 21.2332 38.1638 20.8547C37.2943 20.4747 36.5352 19.9614 35.8877 19.3133C35.2397 18.6653 34.7254 17.9073 34.3469 17.0368C33.9674 16.1667 33.7774 15.2415 33.7774 14.26C33.7774 13.2794 33.9674 12.3542 34.3469 11.4842C34.7254 10.6141 35.2397 9.8556 35.8877 9.20757C36.5352 8.55954 37.2943 8.04625 38.1638 7.66674C39.0338 7.28723 39.9683 7.09772 40.9682 7.09772Z" fill="#7239EA"/>
<path d="M79.6323 8.76318V11.8448H77.5782L75.8565 8.76318H79.6323ZM75.3844 16.4533C75.3844 16.8793 75.5376 17.2399 75.843 17.5361C76.1483 17.8322 76.5133 17.9805 76.9393 17.9805H79.6323V21.2008H76.9393C76.2176 21.2008 75.5376 21.067 74.8983 20.7985C74.2604 20.5305 73.705 20.1602 73.2329 19.6881C72.7608 19.2155 72.3866 18.6654 72.1089 18.0363C71.8312 17.4066 71.6921 16.7305 71.6921 16.0088V11.8448H69.6932V8.76318H71.6921V3.73792H75.3844V16.4533Z" fill="#7239EA"/>
<path d="M94.6056 8.98514C95.4325 10.0956 95.8464 11.854 95.8464 14.26V21.2008H92.1535V14.2775C92.1535 13.7802 92.1395 13.2998 92.1119 12.8379C92.0842 12.3765 91.9873 11.9703 91.8206 11.6199C91.6533 11.269 91.3848 10.9922 91.0155 10.7892C90.6447 10.5861 90.1174 10.4843 89.4325 10.4843C88.8955 10.4843 88.3129 10.6326 87.6837 10.9287L87.6556 10.9564L87.628 10.9006L86.2951 8.49657L86.3232 8.46895C86.804 8.03903 87.3415 7.71719 87.9333 7.50199C88.5256 7.28824 89.1732 7.18016 89.877 7.18016C92.1109 7.18016 93.6866 7.78262 94.6056 8.98514ZM81.881 1.76617H85.5734L85.5458 21.2008H81.8529L81.881 1.76617Z" fill="#7239EA"/>
<path d="M107.756 8.76318V11.8448H105.702L103.98 8.76318H107.756ZM103.509 16.4533C103.509 16.8793 103.662 17.2399 103.967 17.5361C104.272 17.8322 104.637 17.9805 105.064 17.9805H107.756V21.2008H105.064C104.342 21.2008 103.662 21.067 103.022 20.7985C102.384 20.5305 101.829 20.1602 101.357 19.6881C100.885 19.2155 100.511 18.6654 100.233 18.0363C99.9549 17.4066 99.8162 16.7305 99.8162 16.0088V11.8448H97.8169V8.76318H99.8162V3.73792H103.509V16.4533Z" fill="#7239EA"/>
<path d="M124.192 7.31922V21.2012H120.555V14.2425C120.555 13.7045 120.453 13.2038 120.25 12.7395C120.045 12.2757 119.764 11.8675 119.403 11.5147C119.043 11.1623 118.626 10.8885 118.154 10.6936C117.681 10.4993 117.186 10.4009 116.669 10.4009C116.132 10.4009 115.631 10.5036 115.169 10.7077C114.707 10.9122 114.295 11.1866 113.933 11.5302C113.573 11.8734 113.29 12.282 113.087 12.756C112.883 13.2295 112.782 13.7351 112.782 14.2745C112.782 14.7951 112.883 15.287 113.087 15.7514C113.29 16.2152 113.573 16.6243 113.933 16.9771C114.295 17.3305 114.707 17.6087 115.169 17.8127C115.631 18.0173 116.132 18.1191 116.669 18.1191C117.242 18.1191 117.732 18.0178 118.14 17.8137H118.167V17.8699L119.556 20.3404L119.528 20.3685C118.621 21.0718 117.501 21.4232 116.168 21.4232C115.188 21.4232 114.262 21.238 113.392 20.8677C112.522 20.4979 111.763 19.9895 111.116 19.341C110.468 18.6934 109.954 17.9344 109.575 17.0644C109.196 16.1949 109.006 15.2696 109.006 14.2881C109.006 13.2882 109.196 12.3547 109.575 11.4842C109.954 10.6141 110.468 9.8556 111.116 9.20757C111.763 8.56003 112.522 8.04626 113.392 7.66674C114.262 7.28772 115.188 7.09772 116.168 7.09772C117.131 7.09772 117.973 7.27608 118.695 7.63427C119.417 7.99245 120.037 8.51059 120.555 9.18915V7.31922H124.192Z" fill="#7239EA"/>
<path d="M132.965 12.9554C133.576 13.1595 134.135 13.3674 134.645 13.5797C135.154 13.793 135.598 14.0474 135.978 14.3436C136.357 14.6397 136.653 14.996 136.866 15.4123C137.078 15.8292 137.185 16.324 137.185 16.8979V16.9255C137.185 18.3326 136.718 19.4338 135.783 20.2292C134.848 21.025 133.539 21.423 131.855 21.423C130.8 21.423 129.763 21.2412 128.745 20.8772C127.727 20.5137 126.774 19.9951 125.886 19.3233L125.858 19.2952L125.886 19.2671L127.773 16.2867L127.801 16.3148C128.356 16.9071 128.986 17.3559 129.689 17.6613C130.392 17.9662 131.142 18.1188 131.938 18.1188C133.03 18.1188 133.576 17.7689 133.576 17.0666C133.576 16.7346 133.4 16.4854 133.049 16.3192C132.697 16.1534 132.28 15.9959 131.799 15.8485C131.706 15.8122 131.619 15.7889 131.535 15.7792C131.452 15.7705 131.364 15.7472 131.272 15.7104C130.716 15.5621 130.161 15.4002 129.606 15.2252C129.051 15.0498 128.551 14.8099 128.107 14.505C127.663 14.2006 127.297 13.8133 127.01 13.3422C126.723 12.8711 126.58 12.2667 126.58 11.528V11.4728C126.58 10.8262 126.7 10.2358 126.94 9.70026C127.181 9.16516 127.524 8.70422 127.968 8.31598C128.412 7.92775 128.949 7.62869 129.578 7.41543C130.207 7.20362 130.901 7.09747 131.66 7.09747C132.549 7.09747 133.446 7.23173 134.353 7.49977C135.26 7.76828 136.103 8.16185 136.88 8.6795V8.73524L135.187 11.8169L135.158 11.7893C134.732 11.3637 134.205 11.0259 133.576 10.7758C132.947 10.5257 132.28 10.4006 131.578 10.4006C131.448 10.4006 131.299 10.4108 131.133 10.4287C130.966 10.4476 130.814 10.4937 130.675 10.5678C130.535 10.642 130.42 10.7389 130.328 10.8596C130.235 10.9798 130.189 11.1509 130.189 11.3724C130.189 11.5397 130.263 11.6923 130.411 11.8314C130.559 11.9701 130.749 12.0995 130.98 12.2197C131.211 12.3399 131.47 12.4557 131.757 12.5662C132.044 12.6782 132.327 12.78 132.604 12.8721C132.66 12.8721 132.72 12.8818 132.785 12.8997C132.85 12.9186 132.91 12.937 132.965 12.9554Z" fill="#7239EA"/>
<path d="M148.79 8.76318V11.8448H146.736L145.014 8.76318H148.79ZM144.542 16.4533C144.542 16.8793 144.695 17.2399 145.001 17.5361C145.306 17.8322 145.671 17.9805 146.097 17.9805H148.79V21.2008H146.097C145.375 21.2008 144.695 21.067 144.056 20.7985C143.418 20.5305 142.863 20.1602 142.391 19.6881C141.919 19.2155 141.544 18.6654 141.267 18.0363C140.989 17.4066 140.85 16.7305 140.85 16.0088V11.8448H138.851V8.76318H140.85V3.73792H144.542V16.4533Z" fill="#7239EA"/>
<path d="M152.399 7.31902H156.092V21.201H152.399V7.31902ZM152.399 1.76642H156.092V5.01481H152.399V1.76642Z" fill="#7239EA"/>
<path d="M169.002 15.8983L172 17.8695L171.972 17.8972C171.324 19.0081 170.449 19.8776 169.348 20.5072C168.247 21.1363 167.058 21.4509 165.78 21.4509C164.782 21.4509 163.847 21.2609 162.977 20.8814C162.107 20.5029 161.348 19.9891 160.7 19.3411C160.052 18.6935 159.539 17.9345 159.159 17.0645C158.78 16.1945 158.591 15.2697 158.591 14.2882C158.591 13.3072 158.78 12.3814 159.159 11.5119C159.539 10.6418 160.052 9.8838 160.7 9.2348C161.348 8.58774 162.107 8.07397 162.977 7.69445C163.847 7.31494 164.782 7.12543 165.78 7.12543C167.058 7.12543 168.247 7.43999 169.348 8.0696C170.449 8.69873 171.324 9.56826 171.972 10.6787L172 10.7068L168.974 12.678L168.946 12.6504C168.649 11.9655 168.22 11.4101 167.655 10.984C167.091 10.5585 166.465 10.3457 165.78 10.3457C165.281 10.3457 164.813 10.4523 164.379 10.6651C163.943 10.8779 163.569 11.1643 163.254 11.5259C162.94 11.8865 162.69 12.3029 162.505 12.7755C162.32 13.2466 162.227 13.7516 162.227 14.2882C162.227 14.8252 162.32 15.3244 162.505 15.7873C162.69 16.2507 162.94 16.653 163.254 16.9952C163.569 17.3378 163.943 17.6054 164.379 17.8007C164.813 17.9941 165.281 18.091 165.78 18.091C166.465 18.091 167.091 17.9025 167.655 17.523C168.22 17.143 168.649 16.6113 168.946 15.9264L168.974 15.8702L169.002 15.8983Z" fill="#7239EA"/>
<path d="M49.236 14.9047H52.3492L52.7737 17.1212L54.8017 10.5182H57.3017L59.4242 17.1212L62.4899 6.46188H57.6788L67.3949 0L61.1216 20.989H58.0094L56.1225 14.9047L54.094 20.989H51.453L49.236 14.9047Z" fill="#C4AEFF"/>
<path d="M68.0551 1.7926L70.1305 6.36759H66.6878L68.0551 1.7926Z" fill="#7239EA"/>
</svg>
